<svg width="100" height="100" viewBox="0 0 100 100" fill="none" xmlns="http://www.w3.org/2000/svg">
<path d="M38.41 41.03C38.41 42.594 38.0813 43.9257 37.424 45.025C36.778 46.1243 35.877 46.963 34.721 47.541C33.5763 48.119 32.256 48.408 30.76 48.408C29.7513 48.408 28.8503 48.2833 28.057 48.034C27.2637 47.796 26.6233 47.5353 26.136 47.252C25.6487 46.9573 25.3483 46.742 25.235 46.606L27.581 40.877C27.7283 41.0583 27.9153 41.2397 28.142 41.421C28.38 41.6023 28.635 41.7553 28.907 41.88C29.1903 41.9933 29.4623 42.05 29.723 42.05C29.995 42.05 30.2897 42.0047 30.607 41.914C30.9357 41.8233 31.219 41.608 31.457 41.268C31.695 40.9167 31.814 40.367 31.814 39.619V25.56H38.41V41.03ZM49.1474 25.56H55.5904L64.8384 48H57.8174L56.3894 44.107H48.3824L46.9374 48H39.8994L49.1474 25.56ZM50.5924 38.395H54.1794L52.4114 33.448H52.3604L50.5924 38.395ZM50.8644 24.608L49.0114 22.058L54.7914 16.941L57.7834 20.715L50.8644 24.608Z" fill="#EB7330"/>
<path d="M54.936 56.16H64.716V60.192H59.592V62.052H64.296V66.072H59.592V72H54.936V56.16ZM71.4883 72.288C70.3683 72.288 69.3723 72.072 68.5003 71.64C67.6283 71.2 66.9443 70.592 66.4483 69.816C65.9523 69.032 65.7043 68.128 65.7043 67.104C65.7043 66.08 65.9523 65.176 66.4483 64.392C66.9443 63.6 67.6283 62.98 68.5003 62.532C69.3723 62.084 70.3683 61.86 71.4883 61.86C72.6083 61.86 73.5963 62.084 74.4523 62.532C75.3083 62.98 75.9763 63.6 76.4563 64.392C76.9443 65.176 77.1883 66.08 77.1883 67.104C77.1883 68.128 76.9443 69.032 76.4563 69.816C75.9763 70.592 75.3083 71.2 74.4523 71.64C73.5963 72.072 72.6083 72.288 71.4883 72.288ZM71.4883 68.448C71.7523 68.448 71.9763 68.396 72.1603 68.292C72.3443 68.18 72.4843 68.02 72.5803 67.812C72.6843 67.604 72.7363 67.36 72.7363 67.08C72.7363 66.8 72.6843 66.556 72.5803 66.348C72.4843 66.14 72.3443 65.98 72.1603 65.868C71.9763 65.756 71.7523 65.7 71.4883 65.7C71.2243 65.7 70.9963 65.756 70.8043 65.868C70.6203 65.98 70.4763 66.14 70.3723 66.348C70.2683 66.556 70.2163 66.8 70.2163 67.08C70.2163 67.36 70.2683 67.604 70.3723 67.812C70.4763 68.02 70.6203 68.18 70.8043 68.292C70.9963 68.396 71.2243 68.448 71.4883 68.448ZM78.8411 72V62.148H83.5571V72H78.8411ZM81.2531 61.056C80.5491 61.056 79.9491 60.808 79.4531 60.312C78.9651 59.808 78.7211 59.212 78.7211 58.524C78.7211 57.836 78.9651 57.24 79.4531 56.736C79.9491 56.224 80.5491 55.968 81.2531 55.968C81.7171 55.968 82.1411 56.084 82.5251 56.316C82.9091 56.548 83.2171 56.856 83.4491 57.24C83.6891 57.624 83.8091 58.052 83.8091 58.524C83.8091 59.212 83.5571 59.808 83.0531 60.312C82.5571 60.808 81.9571 61.056 81.2531 61.056Z" fill="#333333"/>
<path d="M30.248 78.606L29.2355 75.9825C29.2055 75.9045 29.174 75.8145 29.141 75.7125C29.108 75.6075 29.0765 75.4965 29.0465 75.3795C28.9835 75.6225 28.919 75.825 28.853 75.987L27.8405 78.606H30.248ZM32.066 81H31.391C31.313 81 31.25 80.9805 31.202 80.9415C31.154 80.9025 31.118 80.853 31.094 80.793L30.491 79.236H27.5975L26.9945 80.793C26.9765 80.847 26.942 80.895 26.891 80.937C26.84 80.979 26.777 81 26.702 81H26.027L28.6055 74.5515H29.4875L32.066 81ZM33.5132 79.902C33.6602 80.1 33.8207 80.2395 33.9947 80.3205C34.1687 80.4015 34.3637 80.442 34.5797 80.442C35.0057 80.442 35.3327 80.2905 35.5607 79.9875C35.7887 79.6845 35.9027 79.2525 35.9027 78.6915C35.9027 78.3945 35.8757 78.1395 35.8217 77.9265C35.7707 77.7135 35.6957 77.5395 35.5967 77.4045C35.4977 77.2665 35.3762 77.166 35.2322 77.103C35.0882 77.04 34.9247 77.0085 34.7417 77.0085C34.4807 77.0085 34.2512 77.0685 34.0532 77.1885C33.8582 77.3085 33.6782 77.478 33.5132 77.697V79.902ZM33.4727 77.148C33.6647 76.911 33.8867 76.7205 34.1387 76.5765C34.3907 76.4325 34.6787 76.3605 35.0027 76.3605C35.2667 76.3605 35.5052 76.4115 35.7182 76.5135C35.9312 76.6125 36.1127 76.761 36.2627 76.959C36.4127 77.154 36.5282 77.397 36.6092 77.688C36.6902 77.979 36.7307 78.3135 36.7307 78.6915C36.7307 79.0275 36.6857 79.341 36.5957 79.632C36.5057 79.92 36.3752 80.1705 36.2042 80.3835C36.0362 80.5935 35.8292 80.76 35.5832 80.883C35.3402 81.003 35.0657 81.063 34.7597 81.063C34.4807 81.063 34.2407 81.0165 34.0397 80.9235C33.8417 80.8275 33.6662 80.6955 33.5132 80.5275V82.5435H32.7077V76.4415H33.1892C33.3032 76.4415 33.3737 76.497 33.4007 76.608L33.4727 77.148ZM38.5582 79.902C38.7052 80.1 38.8657 80.2395 39.0397 80.3205C39.2137 80.4015 39.4087 80.442 39.6247 80.442C40.0507 80.442 40.3777 80.2905 40.6057 79.9875C40.8337 79.6845 40.9477 79.2525 40.9477 78.6915C40.9477 78.3945 40.9207 78.1395 40.8667 77.9265C40.8157 77.7135 40.7407 77.5395 40.6417 77.4045C40.5427 77.2665 40.4212 77.166 40.2772 77.103C40.1332 77.04 39.9697 77.0085 39.7867 77.0085C39.5257 77.0085 39.2962 77.0685 39.0982 77.1885C38.9032 77.3085 38.7232 77.478 38.5582 77.697V79.902ZM38.5177 77.148C38.7097 76.911 38.9317 76.7205 39.1837 76.5765C39.4357 76.4325 39.7237 76.3605 40.0477 76.3605C40.3117 76.3605 40.5502 76.4115 40.7632 76.5135C40.9762 76.6125 41.1577 76.761 41.3077 76.959C41.4577 77.154 41.5732 77.397 41.6542 77.688C41.7352 77.979 41.7757 78.3135 41.7757 78.6915C41.7757 79.0275 41.7307 79.341 41.6407 79.632C41.5507 79.92 41.4202 80.1705 41.2492 80.3835C41.0812 80.5935 40.8742 80.76 40.6282 80.883C40.3852 81.003 40.1107 81.063 39.8047 81.063C39.5257 81.063 39.2857 81.0165 39.0847 80.9235C38.8867 80.8275 38.7112 80.6955 38.5582 80.5275V82.5435H37.7527V76.4415H38.2342C38.3482 76.4415 38.4187 76.497 38.4457 76.608L38.5177 77.148Z" fill="#333333"/>
<path d="M41 60L46 65L41 70" stroke="#333333" stroke-width="2" stroke-linecap="round" stroke-linejoin="round"/>
<path d="M30 54V61C30 62.0609 30.4214 63.0783 31.1716 63.8284C31.9217 64.5786 32.9391 65 34 65H46" stroke="#333333" stroke-width="2" stroke-linecap="round" stroke-linejoin="round"/>
<path d="M100 50C100 39.441 96.6572 29.1531 90.4509 20.6107C84.2444 12.0684 75.493 5.71007 65.4509 2.44717C55.4087 -0.815725 44.5913 -0.815725 34.5491 2.44718C24.507 5.71007 15.7556 12.0684 9.54915 20.6107C3.34275 29.1531 -9.23094e-07 39.441 0 50C9.23094e-07 60.559 3.34275 70.8469 9.54915 79.3893C15.7556 87.9316 24.507 94.2899 34.5492 97.5528C44.5913 100.816 55.4087 100.816 65.4509 97.5528L63.1332 90.4199C54.5974 93.1934 45.4026 93.1934 36.8668 90.4199C28.3309 87.6464 20.8922 82.2419 15.6168 74.9809C10.3413 67.7199 7.5 58.9751 7.5 50C7.5 41.0249 10.3413 32.2802 15.6168 25.0191C20.8922 17.7581 28.3309 12.3536 36.8668 9.5801C45.4026 6.80663 54.5974 6.80663 63.1332 9.5801C71.6691 12.3536 79.1078 17.7581 84.3832 25.0191C89.6587 32.2802 92.5 41.0249 92.5 50H100Z" fill="#EB7330"/>
</svg>
